<svg aria-hidden="true" style="position: absolute; width: 0; height: 0; overflow: hidden;" version="1.1" xmlns="http://www.w3.org/2000/svg" xmlns:xlink="http://www.w3.org/1999/xlink">
<defs>
<symbol id="1" viewBox="0 0 48 48">
<path d="M44.009 18h2.99c0.26 0 0.52-0.1 0.72-0.29 0.39-0.39 0.39-1.030 0-1.42-0.271-0.26-3.62-4.29-3.62-4.29s3.35-4.030 3.62-4.29c0.39-0.39 0.39-1.030 0-1.42-0.2-0.19-0.46-0.29-0.72-0.29h-4.811c-2.189-3.6-6.16-6-10.68-6-6.9 0-12.5 5.6-12.5 12.5 0 4.14-3.36 7.5-7.5 7.5h-9.519c-1.101 0-2 0.9-2 2l0.010 0.27c0.89 8.7 6.979 15.9 15.010 18.59v4.64c0 1.38 1.12 2.5 2.5 2.5s2.5-1.12 2.5-2.5v-3.59c0.66 0.060 1.33 0.090 2 0.090s1.34-0.030 2-0.090v3.59c0 1.38 1.12 2.5 2.5 2.5s2.5-1.12 2.5-2.5v-4.64c8.72-2.921 15-11.16 15-20.86l-0-2zM32.009 8.5c0-1.38 1.12-2.5 2.5-2.5s2.5 1.12 2.5 2.5-1.12 2.5-2.5 2.5-2.5-1.12-2.5-2.5zM24.249 23.26c1.41 3.061 0.859 6.801-1.66 9.32-2.48 2.49-6.16 3.061-9.19 1.71l-0.32-0.17c-0.64-0.34-1.069-1.010-1.069-1.78 0-0.59 0.25-1.12 0.65-1.49 0.199-0.18 8.27-8.26 8.27-8.26 0.79-0.79 2.070-0.79 2.85 0 0.12 0.12 0.23 0.25 0.311 0.39l0.158 0.28z"></path>
</symbol>
<symbol id="2" viewBox="0 0 48 48">
<path d="M0 44c0 2.21 1.79 4 4 4h40c2.21 0 4-1.79 4-4l-0-28c0-2.21-1.79-4-4-4h-17.53l7.81-7.81c0.961-0.96 0.961-2.51 0-3.47-0.96-0.96-2.51-0.96-3.469 0l-11.291 11.28h-0.050l-8.28-8.28c-0.96-0.96-2.51-0.96-3.47 0s-0.96 2.51 0 3.47l4.8 4.81h-8.52c-2.21 0-4 1.79-4 4v28zM7.2 17h24.6c1.22 0 2.2 0.98 2.2 2.2v21.6c0 1.22-0.98 2.2-2.2 2.2h-24.6c-1.22 0-2.2-0.98-2.2-2.2v-21.6c0-1.22 0.98-2.2 2.2-2.2zM38 19.5c0-1.38 1.12-2.5 2.5-2.5s2.5 1.12 2.5 2.5-1.12 2.5-2.5 2.5-2.5-1.12-2.5-2.5zM38 27.5c0-1.38 1.12-2.5 2.5-2.5s2.5 1.12 2.5 2.5-1.12 2.5-2.5 2.5-2.5-1.12-2.5-2.5z"></path>
</symbol>
<symbol id="3" viewBox="0 0 48 48">
<path d="M0 42.5c0 1.38 1.12 2.5 2.5 2.5 1.21 0 2.22-0.859 2.45-2h0.050c0-1.1 0.9-2 2-2s2 0.9 2 2v1c0 2.21 1.79 4 4 4h4c2.21 0 4-1.79 4-4v-15c0-2.21-1.79-4-4-4h-4c-2.21 0-4 1.79-4 4v1c0 1.1-0.9 2-2 2s-2-0.9-2-2v-6c0-10.49 8.51-19 19-19s19 8.51 19 19v6c0 1.1-0.9 2-2 2s-2-0.9-2-2v-1c0-2.21-1.79-4-4-4h-4c-2.21 0-4 1.79-4 4v15c0 2.21 1.79 4 4 4h4c2.21 0 4-1.79 4-4v-1c0-1.1 0.9-2 2-2s2 0.9 2 2h0.050c0.229 1.141 1.24 2 2.45 2 1.38 0 2.5-1.12 2.5-2.5v-18.5c0-13.26-10.74-24-24-24s-24 10.74-24 24v18.5z"></path>
</symbol>
<symbol id="4" viewBox="0 0 48 48">
<path d="M0 44c0 2.21 1.79 4 4 4h13c2.21 0 4-1.79 4-4l-0-16h6v16c0 2.21 1.79 4 4 4h13c2.21 0 4-1.79 4-4l-0-26c0-2.21-1.79-4-4-4h-2v-9h0.5c1.38 0 2.5-1.12 2.5-2.5s-1.12-2.5-2.5-2.5h-13c-1.38 0-2.5 1.12-2.5 2.5s1.12 2.5 2.5 2.5h0.5v9h-12v-9h0.5c1.38 0 2.5-1.12 2.5-2.5s-1.12-2.5-2.5-2.5h-13c-1.38 0-2.5 1.12-2.5 2.5s1.12 2.5 2.5 2.5h0.5v9h-2c-2.21 0-4 1.79-4 4v26zM26 23h-4c-1.1 0-2-0.9-2-2s0.9-2 2-2h4c1.1 0 2 0.9 2 2s-0.9 2-2 2z"></path>
</symbol>
<symbol id="5" viewBox="0 0 48 48">
<path d="M32.901 15l-17.5 17.609c-0.581 0.58-1.521 0.58-2.101 0-0.58-0.579-0.58-1.529 0-2.109l20.512-20.641c0.85-0.859 2.229-0.859 3.079 0l4.62 4.65c0.85 0.85 0.85 2.24 0 3.1l-20.51 20.641c-3.67 3.689-9.62 3.689-13.3 0-3.671-3.7-3.671-9.689 0-13.391l17.5-17.609c0.97-0.97 0.97-2.55 0-3.521-0.96-0.97-2.53-0.97-3.5 0l-17.5 17.61c-5.601 5.641-5.601 14.79 0 20.43 5.61 5.641 14.7 5.641 20.3 0l22.050-22.189c1.931-1.95 1.931-5.101 0-7.050l-7.7-7.74c-1.93-1.95-5.070-1.95-7 0l-22.050 22.19c-2.51 2.52-2.51 6.619 0 9.149 2.52 2.53 6.59 2.53 9.101 0l17.5-17.61c0.97-0.97 0.97-2.55 0-3.52-0.971-0.969-2.531-0.969-3.501 0.001z"></path>
</symbol>
<symbol id="6" viewBox="0 0 48 48">
<path d="M17 2.984c-3.91-3.91-10.17-3.98-14.070-0.069-3.91 3.899-3.91 10.239 0 14.14 1.95 1.949 4.48 2.93 7.030 2.93h-7.76c-1.22 0-2.2 0.98-2.2 2.2v4.599c0 1.221 0.98 2.201 2.2 2.201h1.8v15c0 2.209 1.79 4 4 4h32c2.21 0 4-1.791 4-4v-15h1.8c1.22 0 2.2-0.98 2.2-2.201v-4.599c0-1.22-0.98-2.2-2.2-2.2h-7.771c2.561 0 5.091-0.98 7.040-2.93 3.911-3.9 3.911-10.24 0-14.14-3.899-3.912-10.159-3.841-14.069 0.069l-7 7-7-7zM29.18 11.724l5.28-5.28c1.96-1.95 5.12-1.95 7.080 0 1.95 1.96 1.95 5.12 0 7.080-0.979 0.97-2.261 1.46-3.54 1.46h-7.27c-1.101 0-2-0.9-2-2 0-0.481 0.17-0.91 0.45-1.26zM13.54 6.444l5.13 5.13c0.359 0.37 0.58 0.86 0.58 1.41 0 1.1-0.9 2-2 2h-7.25c-1.28 0-2.561-0.49-3.54-1.46-1.95-1.96-1.95-5.12 0-7.080 1.96-1.95 5.12-1.95 7.080 0zM19 19.984h10v20.799c0 1.221-0.98 2.201-2.2 2.201h-5.6c-1.22 0-2.2-0.98-2.2-2.201v-20.799z"></path>
</symbol>
<symbol id="7" viewBox="0 0 48 48">
<path d="M21 34.82v10.68c0 1.38 1.12 2.5 2.5 2.5s2.5-1.12 2.5-2.5l-0-10.68c8.48-1.21 15-8.5 15-17.32 0-9.67-7.83-17.5-17.5-17.5s-17.5 7.83-17.5 17.5c0 8.82 6.52 16.11 15 17.32zM25 19.41c0.939-1.57 0.1-3.189-1.78-3.189-1.94 0-2.84 1.719-2.84 4.029 0 2.25 2.030 5.189 4.62 5.189 4.38 0 7.5-3.5 7.5-7.439 0-5.439-4.37-9.47-9.5-9.47-6.060 0-9.75 4.72-9.75 10.47 0 1.34 0.020 2.8 0.4 4.74 0.29 1.449-1.26 1.59-1.65 0.63-0.69-1.681-1.44-4.37-1.44-6.37 0-7.811 5.25-13 12.44-13 6.88 0 13 5.689 13 13 0 4.75-3.5 11-10.439 11-5.431 0-9.281-3.5-9.281-9 0-3.75 2.56-7.5 7.25-7.5 3.72 0 5.47 3.471 5.47 5.12 0 0.7-0.141 2.46-1.189 3.38-1.221 1.061-3.531-0.16-2.811-1.59z"></path>
</symbol>
<symbol id="8" viewBox="0 0 48 48">
<path d="M24 9.203c-1-3.89-6.080-6.2-10-6.2-7.73 0-14 6-14 14 0 15 14.26 19 22 28 0.069 0.1 0.15 0.181 0.24 0.27 0.979 0.971 2.56 0.971 3.539 0 0.091-0.089 0.15-0.17 0.221-0.27 7.75-9.020 22-12.939 22-28 0-8-6.27-14-14-14-3.92 0-9 2.31-10 6.2zM34.65 12.003c-0.94-0.17-1.65-0.99-1.65-1.97 0-1.1 0.9-2.030 2-2.030 1.59 0 3.52 1.13 5.14 2.73 1.65 1.64 2.86 3.83 2.86 5.27 0 1.1-0.9 2-2 2-0.98 0-1.8-0.71-1.971-1.65-0.5-2.010-2.218-3.85-4.379-4.35z"></path>
</symbol>
<symbol id="9" viewBox="0 0 48 48">
<path d="M24.625 18c2.161 0.5 3.879 2.34 4.379 4.35 0.172 0.94 0.99 1.65 1.971 1.65 1.1 0 2-0.9 2-2 0-1.439-1.209-3.63-2.859-5.27-1.622-1.6-3.552-2.73-5.142-2.73-1.1 0-2 0.931-2 2.030 0.001 0.98 0.711 1.8 1.651 1.97zM5.975 23.5c0 1.010 0.080 2.010 0.25 2.971l-3.49 1.14c-1.32 0.43-2.040 1.84-1.61 3.149 0.43 1.32 1.84 2.030 3.15 1.61l3.49-1.14c0.89 1.8 2.080 3.43 3.5 4.81l-2.16 2.979c-0.81 1.12-0.56 2.681 0.56 3.49 1.11 0.811 2.68 0.57 3.49-0.55l2.161-2.979c1.73 0.92 3.64 1.56 5.66 1.84v3.68c0 1.38 1.12 2.5 2.5 2.5s2.5-1.12 2.5-2.5v-3.68c2.020-0.28 3.93-0.92 5.66-1.84l2.16 2.979c0.811 1.12 2.381 1.36 3.49 0.55 1.119-0.81 1.369-2.37 0.561-3.49l-2.17-2.979c1.43-1.38 2.619-3.010 3.5-4.81l3.5 1.14c1.309 0.42 2.719-0.29 3.148-1.61 0.43-1.31-0.289-2.72-1.609-3.149l-3.49-1.14c0.17-0.961 0.25-1.961 0.25-2.971s-0.080-2.010-0.25-2.97l3.49-1.141c1.32-0.43 2.039-1.84 1.609-3.149-0.43-1.32-1.84-2.030-3.148-1.61l-3.5 1.14c-0.881-1.799-2.070-3.43-3.5-4.819l2.17-2.97c0.809-1.12 0.559-2.681-0.561-3.49-1.109-0.81-2.68-0.57-3.49 0.55l-2.16 2.97c-1.74-0.91-3.641-1.55-5.66-1.829l-0-3.682c0-1.38-1.12-2.5-2.5-2.5s-2.5 1.12-2.5 2.5v3.681c-2.020 0.279-3.93 0.919-5.66 1.829l-2.161-2.97c-0.81-1.12-2.38-1.359-3.49-0.55-1.12 0.81-1.37 2.37-0.56 3.49l2.16 2.97c-1.42 1.39-2.61 3.021-3.5 4.819l-3.49-1.14c-1.31-0.42-2.72 0.29-3.15 1.61-0.43 1.31 0.29 2.72 1.61 3.149l3.49 1.141c-0.17 0.961-0.25 1.961-0.25 2.971zM10.975 23.5c0-6.9 5.6-12.5 12.5-12.5s12.5 5.6 12.5 12.5-5.6 12.5-12.5 12.5c-6.9 0-12.5-5.6-12.5-12.5z"></path>
</symbol>
<symbol id="10" viewBox="0 0 48 48">
<path d="M28 5h-3c-7.85 0-14.29 6.020-14.95 13.7-4.78 2.51-8.050 7.521-8.050 13.3l0.010 0.050c-1.151 0.23-2.010 1.24-2.010 2.45 0 1.38 1.12 2.5 2.5 2.5h3.52c0.25 3.91 3.51 7 7.48 7s7.23-3.090 7.48-7h7.039c0.25 3.91 3.51 7 7.48 7 4.14 0 7.5-3.36 7.5-7.5 0-0.27-0.020-0.55-0.050-0.811 3.021-1.729 5.051-4.968 5.051-8.689v-6.8c0-1.22-0.98-2.2-2.2-2.2h-2.93c-0.98-7.34-7.261-13-14.87-13zM24 10.050v9.95h-9c0-5.189 3.95-9.45 9-9.95zM29 20v-9.95c5.050 0.5 9 4.761 9 9.95h-9zM16 36.5c0 1.38-1.12 2.5-2.5 2.5s-2.5-1.12-2.5-2.5 1.12-2.5 2.5-2.5 2.5 1.12 2.5 2.5zM38 36.5c0 1.38-1.12 2.5-2.5 2.5s-2.5-1.12-2.5-2.5 1.12-2.5 2.5-2.5 2.5 1.12 2.5 2.5z"></path>
</symbol>
<symbol id="11" viewBox="0 0 20 20">
<path d="M15.173 2h-11.173c-1.101 0-2 0.9-2 2v12c0 1.1 0.899 2 2 2h12c1.101 0 2-0.9 2-2v-10.873l-2.827-3.127zM14 8c0 0.549-0.45 1-1 1h-6c-0.55 0-1-0.451-1-1v-5h8v5zM13 4h-2v4h2v-4z"></path>
</symbol>
<symbol id="12" viewBox="0 0 20 20">
<path d="M12.496 17.414c-0.394-1.096-1.805-4.775-2.39-6.297-1.103 0.737-2.334 1.435-3.512 1.928-0.366 1.28-1.094 3.709-1.446 4.033-0.604 0.557-0.832 0.485-0.925-0.279s-0.485-3.236-0.485-3.236-2.162-1.219-2.84-1.568-0.667-0.591 0.057-0.974c0.422-0.223 2.927-0.085 4.242 0.005 0.861-0.951 1.931-1.882 2.993-2.679-1.215-1.076-4.15-3.675-5.034-4.424-0.776-0.658 0.079-0.797 0.079-0.797 0.39-0.070 1.222-0.132 1.628-0.009 2.524 0.763 6.442 2.068 7.363 2.376 0.353-0.249 0.737-0.52 1.162-0.821 4.702-3.33 5.887-2.593 6.111-2.27s0.503 1.701-4.199 5.032c-0.425 0.301-0.808 0.573-1.16 0.823-0.029 0.98-0.157 5.151-0.311 7.811-0.025 0.428-0.367 1.198-0.565 1.544-0.001 0-0.423 0.765-0.768-0.198z"></path>
</symbol>
<symbol id="13" viewBox="0 0 20 20">
<path d="M15.408 10c0-2.766 1.277-4.32 2.277-4.32 0.363 0 1.315 0 1.315 0-0.668-1.059-1.221-1.68-3.658-1.68h-10.008c-3.734 0-5.334 3.441-5.334 6s1.6 6 5.334 6h10.008c2.438 0 2.99-0.621 3.658-1.68 0 0-0.315 0-1.315 0s-2.277-1.554-2.277-4.32zM12.688 11.795c-0.164 0.25-0.676 0.016-0.676 0.016l-2.957-1.338c0 0-0.264 0.67-0.467 1.141-0.205 0.471-0.361 1.004-1.209 0.408-0.849-0.598-3.581-3.25-3.581-3.25s-0.345-0.284-0.173-0.551c0.163-0.252 0.676-0.016 0.676-0.016l2.956 1.336c0 0 0.265-0.668 0.468-1.139 0.205-0.47 0.361-1.006 1.209-0.408 0.849 0.596 3.58 3.25 3.58 3.25s0.345 0.283 0.174 0.551zM18.874 7.928h-0.749c-0.559 0-1.105 0.754-1.105 1.979 0 1.227 0.547 1.98 1.105 1.98h0.749c0.56 0 1.126-0.754 1.126-1.98s-0.566-1.979-1.126-1.979z"></path>
</symbol>
<symbol id="14" viewBox="0 0 20 20">
<path d="M10 0.4c-5.302 0-9.6 4.298-9.6 9.6s4.298 9.6 9.6 9.6c5.301 0 9.6-4.298 9.6-9.601 0-5.301-4.299-9.599-9.6-9.599zM10 17.599c-4.197 0-7.6-3.402-7.6-7.6s3.402-7.599 7.6-7.599c4.197 0 7.601 3.402 7.601 7.6s-3.404 7.599-7.601 7.599zM7.501 9.75c0.828 0 1.499-0.783 1.499-1.75s-0.672-1.75-1.5-1.75-1.5 0.783-1.5 1.75 0.672 1.75 1.501 1.75zM12.5 9.75c0.829 0 1.5-0.783 1.5-1.75s-0.672-1.75-1.5-1.75-1.5 0.784-1.5 1.75 0.672 1.75 1.5 1.75zM14.341 11.336c-0.363-0.186-0.815-0.043-1.008 0.32-0.034 0.066-0.869 1.593-3.332 1.593-2.451 0-3.291-1.513-3.333-1.592-0.188-0.365-0.632-0.514-1.004-0.329-0.37 0.186-0.52 0.636-0.335 1.007 0.050 0.099 1.248 2.414 4.672 2.414 3.425 0 4.621-2.316 4.67-2.415 0.184-0.367 0.036-0.81-0.33-0.998z"></path>
</symbol>
<symbol id="15" viewBox="0 0 20 20">
<path d="M19.444 9.361c-0.882-4.926-2.854-6.379-3.903-6.379-1.637 0-2.057 1.217-5.541 1.258-3.484-0.041-3.904-1.258-5.541-1.258-1.049 0-3.022 1.453-3.904 6.379-0.503 2.812-1.049 7.010 0.252 7.514 1.619 0.627 2.168-0.941 3.946-2.266 1.805-1.343 2.671-1.659 5.247-1.659s3.442 0.316 5.247 1.659c1.778 1.324 2.327 2.893 3.946 2.266 1.301-0.504 0.755-4.701 0.251-7.514zM6 10c-1.105 0-2-0.896-2-2s0.895-2 2-2 2 0.895 2 2c0 1.104-0.896 2-2 2zM13 10c-0.553 0-1-0.447-1-1s0.447-1 1-1c0.553 0 1 0.447 1 1s-0.447 1-1 1zM15 8c-0.553 0-1-0.447-1-1s0.447-1 1-1c0.553 0 1 0.447 1 1s-0.447 1-1 1z"></path>
</symbol>
<symbol id="16" viewBox="0 0 20 20">
<path d="M1.228 10.891c-0.221 0.148-0.292 0.46-0.159 0.69l1.296 2.244c0.133 0.23 0.438 0.325 0.677 0.208l3.958-1.917v6.884h2v-7.854l4.071-1.973-2.62-4.54-9.223 6.258zM18.457 3.037c-1.121-1.94-3.604-2.605-5.546-1.484-0.91 0.525-1.508 1.359-1.801 2.289l2.976 5.156c0.951 0.212 1.973 0.11 2.885-0.415 1.942-1.121 2.607-3.603 1.486-5.546z"></path>
</symbol>
<symbol id="17" viewBox="0 0 20 20">
<path d="M17.256 12.253c-0.096-0.667-0.611-1.187-1.274-1.342-2.577-0.604-3.223-2.088-3.332-3.734-0.457-0.085-1.27-0.177-2.65-0.177s-2.193 0.092-2.65 0.177c-0.109 1.646-0.755 3.13-3.332 3.734-0.663 0.156-1.178 0.675-1.274 1.342l-0.497 3.442c-0.175 1.212 0.715 2.305 1.953 2.305h11.6c1.237 0 2.128-1.093 1.953-2.305l-0.497-3.442zM10 15.492c-1.395 0-2.526-1.12-2.526-2.5s1.131-2.5 2.526-2.5 2.526 1.12 2.526 2.5-1.132 2.5-2.526 2.5zM19.95 6c-0.024-1.5-3.842-3.999-9.95-4-6.109 0.001-9.927 2.5-9.95 4s0.021 3.452 2.535 3.127c2.941-0.381 2.76-1.408 2.76-2.876 0-1.024 2.392-1.271 4.655-1.271s4.654 0.247 4.655 1.271c0 1.468-0.181 2.495 2.76 2.876 2.513 0.325 2.558-1.627 2.535-3.127z"></path>
</symbol>
<symbol id="18" viewBox="0 0 20 20">
<path d="M17 8h-11.979l8.974-5.265-0.995-1.735-11.264 6.571c-0.456 0.266-0.736 0.753-0.736 1.281v8.148c0 1.105 0.895 2 2 2h14c1.105 0 2-0.895 2-2v-7c0-1.105-0.895-2-2-2zM15.5 17c-0.828 0-1.5-0.672-1.5-1.5s0.672-1.5 1.5-1.5 1.5 0.672 1.5 1.5c0 0.828-0.672 1.5-1.5 1.5zM17 12h-14v-2h14v2z"></path>
</symbol>
<symbol id="19" viewBox="0 0 20 20">
<path d="M8.38 5.59c0-2.038-1.652-3.69-3.69-3.69s-3.69 1.652-3.69 3.69c0 2.038 1.652 3.69 3.69 3.69 0.96 0 1.826-0.376 2.483-0.976l1.827 1.687 0.012 0.009-0.004 0.003-1.836 1.693c-0.656-0.6-1.522-0.976-2.482-0.976-2.038 0-3.69 1.652-3.69 3.69s1.652 3.69 3.69 3.69 3.69-1.652 3.69-3.69c0-0.297-0.044-0.582-0.111-0.858l2.844-1.991 4.127 3.065c2.212 1.549 3.76-0.663 3.76-0.663l-10.731-7.515c0.066-0.276 0.111-0.561 0.111-0.858zM4.69 7.39c-0.994 0-1.8-0.806-1.8-1.8s0.806-1.8 1.8-1.8 1.8 0.806 1.8 1.8-0.806 1.8-1.8 1.8zM4.69 16.21c-0.994 0-1.8-0.806-1.8-1.8s0.806-1.8 1.8-1.8 1.8 0.806 1.8 1.8-0.806 1.8-1.8 1.8zM19 6.038c0 0-1.548-2.212-3.76-0.663l-3.205 2.235 2.354 1.648 4.611-3.22z"></path>
</symbol>
<symbol id="20" viewBox="0 0 20 20">
<path d="M13 17c0 1.104 0.894 2 2 2 1.104 0 2-0.896 2-2 0-1.106-0.896-2-2-2-1.106 0-2 0.894-2 2zM3 17c0 1.104 0.895 2 2 2 1.103 0 2-0.896 2-2 0-1.106-0.897-2-2-2-1.105 0-2 0.894-2 2zM6.547 12.172l11.068-3.162c0.211-0.061 0.385-0.289 0.385-0.51v-5.5h-14v-1.6c0-0.22-0.181-0.4-0.399-0.4h-3.202c-0.219 0-0.399 0.18-0.399 0.4v1.6h2l1.91 8.957 0.090 0.943v1.649c0 0.219 0.18 0.4 0.4 0.4h13.2c0.22 0 0.4-0.182 0.4-0.4v-1.549h-11.248c-1.15 0-1.174-0.551-0.205-0.828z"></path>
</symbol>
</defs>
</svg>
